<?xml version="1.0" ?><svg id="Layer_1" style="enable-background:new 0 0 256 256;" version="1.1" viewBox="0 0 256 256" xml:space="preserve" xmlns="http://www.w3.org/2000/svg" xmlns:xlink="http://www.w3.org/1999/xlink"><style type="text/css">
	.st0{fill:#D5E2EB;}
	.st1{fill:#8C623B;}
	.st2{fill:#603813;}
	.st3{fill:#EA685E;}
	.st4{fill:#CC4E47;}
</style><g id="Layer_2"><circle class="st0" cx="128" cy="127.99998" r="120"/></g><g><g><path class="st1" d="M128,186.25113c-2.6122,0-4.72929-2.1171-4.72929-4.72929V53.27573c0-2.6122,2.1171-4.72929,4.72929-4.72929    c2.61218,0,4.72929,2.1171,4.72929,4.72929v128.24609C132.72929,184.13403,130.6122,186.25113,128,186.25113z"/></g></g><g><g><path class="st2" d="M153.53819,192.29138c0,8.37094-6.79126,15.16214-15.13374,15.16214s-15.13374-6.7912-15.13374-15.13374    v-16.71326h9.45859v16.71326c0,3.13086,2.54436,5.67516,5.67516,5.67516c3.13078,0,5.67516-2.5443,5.67516-5.67516    c-0.01894-2.30783-0.681-4.63461-1.92012-6.69675c-1.35257-2.24158-0.62425-5.14542,1.60797-6.49794    c2.24168-1.34328,5.14548-0.62418,6.48863,1.61739C152.3748,184.26105,153.5098,188.25255,153.53819,192.29138z"/></g></g><path class="st3" d="M207.5,122.09998c0,0.75-0.60999,1.38-1.38,1.38c-0.47998,0-0.91998-0.25-1.16998-0.65997  c-4.67999-7.46002-13.29999-12.47998-23.19-12.47998c-9.04004,0-17.03003,4.19995-21.90002,10.62994  c-0.58997,0.79004-1.34998,1.41003-2.20001,1.85004c-0.84998,0.41998-1.78998,0.65997-2.77997,0.65997  c-1.96002,0-3.78998-0.94-4.97003-2.51001c-4.87994-6.42999-12.85999-10.62994-21.90997-10.62994  s-17.03003,4.19995-21.90997,10.62994c-0.58002,0.78003-1.34003,1.41003-2.19,1.84003  c-0.85004,0.42999-1.80005,0.66998-2.78003,0.66998c-1.96997,0-3.78998-0.92999-4.97998-2.51001  c-4.87-6.42999-12.85999-10.62994-21.90002-10.62994c-9.89001,0-18.51001,5.01996-23.19,12.47998  c-0.25,0.40997-0.69,0.65997-1.16998,0.65997c-0.84998,0-1.5-0.76001-1.35999-1.60999  c6.32996-37.02997,37.94-65.46997,76.44995-66.89001c0.22003-0.01996,0.45001-0.01996,0.67004-0.02997  c0.32001-0.01001,2.03998-0.03003,2.35999-0.03003s2.03998,0.02002,2.35999,0.03003  c0.22003,0.01001,0.45001,0.01001,0.67004,0.02997c38.50995,1.42004,70.12,29.86005,76.44995,66.89001  C207.48999,121.95001,207.5,122.02002,207.5,122.09998z"/><path class="st4" d="M207.48059,121.87347c-0.15137-0.91742-0.34058-1.8349-0.52979-2.74292  c-0.46344-0.01892-0.88904-0.26508-1.13495-0.66223c-4.72931-7.54797-13.45013-12.61761-23.44788-12.61761  c-9.14648,0-17.22406,4.24689-22.15204,10.75427c-1.19177,1.57977-3.04559,2.53485-5.03198,2.53485  c-0.24316,0-0.48389-0.01508-0.72168-0.04285c-0.78259-44.84692-16.64484-59.77728-23.43225-64.117  c-0.22003-0.01996-0.45001-0.01996-0.67004-0.02997C130.03998,54.94,128.32001,54.91998,128,54.91998  s-2.03998,0.02002-2.35999,0.03003c-0.22003,0.01001-0.45001,0.01001-0.67004,0.02997  c-6.78638,4.33905-22.6449,19.26526-23.43201,64.09619c-0.23907,0.02789-0.47638,0.06366-0.72192,0.06366  c-0.99316,0-1.94849-0.23645-2.81866-0.67151c-0.04736-0.01892-0.0946-0.04706-0.13245-0.07574  c-0.80402-0.435-1.51337-1.03082-2.08087-1.78754c-4.92798-6.50745-13.00555-10.75433-22.15204-10.75433  c-9.99774,0-18.71857,5.0697-23.44788,12.61761c-0.24591,0.39722-0.67151,0.64337-1.13501,0.66229  c-0.18915,0.90796-0.37836,1.82544-0.52972,2.74292c-0.14185,0.84167,0.5108,1.60791,1.36206,1.60791  c0.48242,0,0.91754-0.25543,1.17291-0.66211c4.67255-7.46295,13.29877-12.47577,23.18298-12.47577  c9.04242,0,17.03491,4.19952,21.90613,10.63141c0.34991,0.4635,0.76611,0.87958,1.22009,1.21997  c1.06885,0.823,2.37415,1.2865,3.75513,1.2865c0.52966,0,1.04987-0.06628,1.54175-0.19861  c1.3526-0.34985,2.57269-1.16339,3.43347-2.30786c4.87115-6.43188,12.85419-10.63141,21.90607-10.63141  s17.03491,4.19952,21.90607,10.63141c1.18231,1.56061,3.01727,2.50647,4.97522,2.50647c1.96741,0,3.79291-0.94586,4.97522-2.50647  c4.87122-6.43188,12.86377-10.63141,21.90613-10.63141c9.88422,0,18.51044,5.01282,23.18298,12.47577  c0.25537,0.40668,0.69049,0.66211,1.17291,0.66211C206.96979,123.48145,207.62244,122.71521,207.48059,121.87347z"/></svg>