<?xml version="1.0" ?><svg enable-background="new 0 0 512 512" id="Layer_1" version="1.1" viewBox="0 0 512 512" xml:space="preserve" xmlns="http://www.w3.org/2000/svg" xmlns:xlink="http://www.w3.org/1999/xlink"><g><g><linearGradient gradientUnits="userSpaceOnUse" id="SVGID_1_" x1="0.0000038" x2="512" y1="256" y2="256"><stop offset="0" style="stop-color:#A364AB"/><stop offset="1" style="stop-color:#8C3D96"/></linearGradient><circle cx="256" cy="256" fill="url(#SVGID_1_)" r="256"/><linearGradient gradientUnits="userSpaceOnUse" id="SVGID_2_" x1="42.6666679" x2="469.3333435" y1="256.0005188" y2="256.0005188"><stop offset="0" style="stop-color:#8C3D96"/><stop offset="1" style="stop-color:#A364AB"/></linearGradient><path d="M256,469.3338623c-117.6314697,0-213.3333282-95.7018738-213.3333282-213.3333435    S138.3685303,42.6671982,256,42.6671982c117.636261,0,213.3333435,95.7018661,213.3333435,213.333313    S373.636261,469.3338623,256,469.3338623z" fill="url(#SVGID_2_)"/></g><path d="M344.1311951,144l-14.3882751,14.4602661l10.1061401,10.1589355   c-1.5322571,0.7151947-2.9685364,1.706131-4.2319946,2.9759979c-5.778656,5.8085327-5.778656,15.2256012,0,21.035202   c0.4198608,0.4213257,0.8938599,0.7471924,1.3493347,1.107193v118.9344025c0,5.2197266-4.2144165,9.4624023-9.3904114,9.4624023   c-5.1754456,0-9.3843994-4.2426758-9.3843994-9.4624023v-53.29599c0-13.6917419-11.0939941-24.834137-24.7313232-24.834137   h-9.7006836v-89.6730652H144V384h139.7595825V244.5418701h9.7006836c8.1247864,0,14.7313232,6.6549225,14.7313232,14.834137   v53.29599c0,10.7317505,8.6958618,19.4624023,19.3843994,19.4624023c10.6938782,0,19.3904114-8.7306519,19.3904114-19.4624023   V196.9013367c3.485321-0.20961,6.9146729-1.5951996,9.578125-4.2709351   c1.2645264-1.2709351,2.2522583-2.7141418,2.962677-4.2544098l10.1055908,10.1573334L384,184.0720062L344.1311951,144z    M260.1242676,228.9045258H167.636261V189.622406c0-11.4490662,9.2806549-20.7290802,20.7290802-20.7290802h51.0293274   c11.4485321,0,20.729599,9.280014,20.729599,20.7290802V228.9045258z" opacity="0.3"/><path d="M336.1311951,136l-14.3882751,14.4602661l10.1061401,10.1589355   c-1.5322571,0.7151947-2.9685364,1.706131-4.2319946,2.9759979c-5.778656,5.8085327-5.778656,15.2256012,0,21.035202   c0.4198608,0.4213257,0.8938599,0.7471924,1.3493347,1.107193v118.9344025c0,5.2197266-4.214386,9.4624023-9.3904114,9.4624023   c-5.1754456,0-9.3843994-4.2426758-9.3843994-9.4624023v-53.29599c0-13.6917419-11.0939941-24.834137-24.7313232-24.834137   h-9.7006836v-89.6730652H136V376h139.7595825V236.5418701h9.7006836c8.1247864,0,14.7313232,6.6549225,14.7313232,14.834137   v53.29599c0,10.7317505,8.6958618,19.4624023,19.3843994,19.4624023c10.6938782,0,19.3904114-8.7306519,19.3904114-19.4624023   V188.9013367c3.485321-0.20961,6.9146729-1.5951996,9.578125-4.2709351   c1.2645264-1.2709351,2.2522583-2.7141418,2.962677-4.2544098l10.1055908,10.1573334L376,176.0720062L336.1311951,136z    M252.1242676,220.9045258H159.636261V181.622406c0-11.4490662,9.2806549-20.7290802,20.7290802-20.7290802h51.0293274   c11.4485321,0,20.729599,9.280014,20.729599,20.7290802V220.9045258z" fill="#FFFFFF"/></g></svg>