<?xml version="1.0" ?><svg height="48" id="svg6485" version="1.1" viewBox="0 0 48 48" width="48" xmlns="http://www.w3.org/2000/svg" xmlns:cc="http://creativecommons.org/ns#" xmlns:dc="http://purl.org/dc/elements/1.1/" xmlns:inkscape="http://www.inkscape.org/namespaces/inkscape" xmlns:rdf="http://www.w3.org/1999/02/22-rdf-syntax-ns#" xmlns:sodipodi="http://sodipodi.sourceforge.net/DTD/sodipodi-0.dtd" xmlns:svg="http://www.w3.org/2000/svg"><defs id="defs6487"/><g id="layer1" transform="translate(0,-1004.3622)"><text id="text4366" style="font-style:normal;font-weight:normal;font-size:11.25px;line-height:125%;font-family:Sans;letter-spacing:0px;word-spacing:0px;fill:#000000;fill-opacity:1;stroke:none;stroke-width:1px;stroke-linecap:butt;stroke-linejoin:miter;stroke-opacity:1" x="12" xml:space="preserve" y="1036.3622"><tspan id="tspan4368" x="12" y="1036.3622"/></text><g id="text4981" style="font-style:normal;font-variant:normal;font-weight:normal;font-stretch:normal;font-size:12.37186241px;line-height:125%;font-family:'Roboto Condensed';-inkscape-font-specification:'Roboto Condensed, ';letter-spacing:0px;word-spacing:0px;fill:#000000;fill-opacity:1;stroke:none;stroke-width:1px;stroke-linecap:butt;stroke-linejoin:miter;stroke-opacity:1" transform="scale(1.1477838,0.87124422)"/><g id="g5508"><g id="g5949" transform="translate(534.02794,312.17156)"><path d="m -510.02794,692.19064 c -13.25187,0 -24,10.74825 -24,24 0,13.2519 10.74813,24 24,24 13.25187,0 24,-10.7481 24,-24 0,-13.25175 -10.74813,-24 -24,-24 z m 0,1.5 c 12.42359,0 22.5,10.07655 22.5,22.5 0,12.4236 -10.07641,22.5 -22.5,22.5 -12.42359,0 -22.5,-10.0764 -22.5,-22.5 0,-12.42345 10.07641,-22.5 22.5,-22.5 z" id="path5843" style="color:#000000;font-style:normal;font-variant:normal;font-weight:normal;font-stretch:normal;font-size:medium;line-height:normal;font-family:sans-serif;text-indent:0;text-align:start;text-decoration:none;text-decoration-line:none;text-decoration-style:solid;text-decoration-color:#000000;letter-spacing:normal;word-spacing:normal;text-transform:none;direction:ltr;block-progression:tb;writing-mode:lr-tb;baseline-shift:baseline;text-anchor:start;white-space:normal;clip-rule:nonzero;display:inline;overflow:visible;visibility:visible;opacity:1;isolation:auto;mix-blend-mode:normal;color-interpolation:sRGB;color-interpolation-filters:linearRGB;solid-color:#000000;solid-opacity:1;fill:#e26600;fill-opacity:1;fill-rule:nonzero;stroke:none;stroke-width:0.99999994;stroke-linecap:round;stroke-linejoin:round;stroke-miterlimit:4;stroke-dasharray:none;stroke-dashoffset:0;stroke-opacity:1;color-rendering:auto;image-rendering:auto;shape-rendering:auto;text-rendering:auto;enable-background:accumulate"/><path d="m -510.02794,696.44059 c -10.90519,0 -19.75,8.84505 -19.75,19.75005 0,10.90515 8.84481,19.75005 19.75,19.75005 10.90519,0 19.75,-8.8449 19.75,-19.75005 0,-10.905 -8.84481,-19.75005 -19.75,-19.75005 z" id="path5845" style="color:#000000;font-style:normal;font-variant:normal;font-weight:normal;font-stretch:normal;font-size:medium;line-height:normal;font-family:sans-serif;text-indent:0;text-align:start;text-decoration:none;text-decoration-line:none;text-decoration-style:solid;text-decoration-color:#000000;letter-spacing:normal;word-spacing:normal;text-transform:none;direction:ltr;block-progression:tb;writing-mode:lr-tb;baseline-shift:baseline;text-anchor:start;white-space:normal;clip-rule:nonzero;display:inline;overflow:visible;visibility:visible;opacity:1;isolation:auto;mix-blend-mode:normal;color-interpolation:sRGB;color-interpolation-filters:linearRGB;solid-color:#000000;solid-opacity:1;fill:#e26600;fill-opacity:1;fill-rule:nonzero;stroke:none;stroke-width:0.99999994;stroke-linecap:round;stroke-linejoin:round;stroke-miterlimit:4;stroke-dasharray:none;stroke-dashoffset:0;stroke-opacity:1;color-rendering:auto;image-rendering:auto;shape-rendering:auto;text-rendering:auto;enable-background:accumulate"/><path d="m -510.02794,696.44059 c -10.90519,0 -19.75,8.84505 -19.75,19.75005 0,5.4579 2.21752,10.39755 5.798,13.9728 l 27.92477,-27.92475 c -3.57517,-3.5805 -8.51487,-5.7981 -13.97277,-5.7981 z" id="path5847" style="color:#000000;clip-rule:nonzero;display:inline;overflow:visible;visibility:visible;opacity:1;isolation:auto;mix-blend-mode:normal;color-interpolation:sRGB;color-interpolation-filters:linearRGB;solid-color:#000000;solid-opacity:1;fill:#dd4400;fill-opacity:1;fill-rule:nonzero;stroke:none;stroke-width:1.5;stroke-linecap:butt;stroke-linejoin:miter;stroke-miterlimit:4;stroke-dasharray:none;stroke-dashoffset:0;stroke-opacity:1;color-rendering:auto;image-rendering:auto;shape-rendering:auto;text-rendering:auto;enable-background:accumulate"/></g><path d="m 21,1018.3622 c -1.099357,0 -2,0.9007 -2,2 l 0,2 -4,0 c -2.20736,0 -4,1.7927 -4,4 l 0,2.5 c 2.8e-5,0.2761 0.223869,0.5 0.5,0.5 l 0.5,0 0,5 c 0,1.6534 1.346641,3 3,3 l 18,0 c 1.653359,0 3,-1.3466 3,-3 l 0,-5 0.5,0 c 0.276131,0 0.499972,-0.2239 0.5,-0.5 l 0,-2.5 c 0,-2.2073 -1.792641,-4 -4,-4 l -4,0 0,-2 c 0,-1.0993 -0.900643,-2 -2,-2 z m 0,0.9922 0,0.01 6,0 c 0.562661,0 1,0.4374 1,1 l 0,2 -1,0 0,-1.5 c 8.3e-5,-0.016 -5.69e-4,-0.031 -0.002,-0.047 -0.0019,-0.016 -0.0045,-0.031 -0.0078,-0.047 -0.0031,-0.016 -0.0071,-0.031 -0.01172,-0.047 -0.0051,-0.015 -0.011,-0.03 -0.01758,-0.045 -0.0065,-0.015 -0.01364,-0.029 -0.02148,-0.043 -0.0084,-0.014 -0.01756,-0.028 -0.02734,-0.041 -0.019,-0.027 -0.04058,-0.052 -0.06445,-0.074 -0.09003,-0.097 -0.21509,-0.1549 -0.34763,-0.1601 l -5,0 c -0.03345,-10e-5 -0.06682,0 -0.09961,0.01 -0.231633,0.047 -0.398646,0.25 -0.400391,0.4863 l 0,1.5 -1,0 0,-2 c 0,-0.1407 0.02638,-0.2744 0.07617,-0.3945 0.149379,-0.3604 0.501835,-0.6055 0.923831,-0.6055 z m 1,2.0078 4,0 0,1 -4,0 z m -7,2 18,0 c 1.670659,0 3,1.3294 3,3 l 0,2 -5,0 0,-1 c 0,-0.5453 -0.454639,-1 -1,-1 l -1,0 c -0.545361,0 -1,0.4547 -1,1 l 0,1 -8,0 0,-1 c 0,-0.5453 -0.454639,-1 -1,-1 l -1,0 c -0.545361,0 -1,0.4547 -1,1 l 0,1 -5,0 0,-2 c 0,-1.6706 1.329341,-3 3,-3 z m 3,4 1,0 0,1.418 c -0.009,0.054 -0.009,0.1097 0,0.164 l 0,1.418 -1,0 0,-1.4219 c 0.0086,-0.053 0.0086,-0.1071 0,-0.1601 z m 11,0 1,0 0,1.418 c -0.009,0.054 -0.009,0.1097 0,0.164 l 0,1.418 -1,0 0,-1.4219 c 0.0086,-0.053 0.0086,-0.1071 0,-0.1601 z m -16,2 4,0 0,1 c 0,0.5454 0.454639,1 1,1 l 1,0 c 0.545361,0 1,-0.4546 1,-1 l 0,-1 8,0 0,1 c 0,0.5454 0.454639,1 1,1 l 1,0 c 0.545361,0 1,-0.4546 1,-1 l 0,-1 4,0 0,5 c 0,1.1167 -0.883341,2 -2,2 l -18,0 c -1.11666,0 -2,-0.8833 -2,-2 z" id="path4711" style="color:#000000;font-style:normal;font-variant:normal;font-weight:normal;font-stretch:normal;font-size:medium;line-height:normal;font-family:sans-serif;text-indent:0;text-align:start;text-decoration:none;text-decoration-line:none;text-decoration-style:solid;text-decoration-color:#000000;letter-spacing:normal;word-spacing:normal;text-transform:none;direction:ltr;block-progression:tb;writing-mode:lr-tb;baseline-shift:baseline;text-anchor:start;white-space:normal;clip-rule:nonzero;display:inline;overflow:visible;visibility:visible;opacity:1;isolation:auto;mix-blend-mode:normal;color-interpolation:sRGB;color-interpolation-filters:linearRGB;solid-color:#000000;solid-opacity:1;fill:#ffffff;fill-opacity:1;fill-rule:nonzero;stroke:none;stroke-width:1;stroke-linecap:round;stroke-linejoin:round;stroke-miterlimit:4;stroke-dasharray:none;stroke-dashoffset:0;stroke-opacity:1;color-rendering:auto;image-rendering:auto;shape-rendering:auto;text-rendering:auto;enable-background:accumulate"/></g></g></svg>