<?xml version="1.0" ?><svg enable-background="new 0 0 64 64" version="1.1" viewBox="0 0 64 64" xml:space="preserve" xmlns="http://www.w3.org/2000/svg" xmlns:xlink="http://www.w3.org/1999/xlink"><g id="Glyph"><path d="M32,0C14.327,0,0,14.327,0,32c0,17.673,14.327,32,32,32s32-14.327,32-32C64,14.327,49.673,0,32,0z M44.658,50.434   L32,40.784l-12.659,9.65l4.836-15.613l-12.659-9.646h15.646L32,9.566l4.836,15.609h15.646l-12.659,9.646L44.658,50.434z"/><polygon points="36.836,29.175 33.887,29.175 33.015,26.359 32,23.083 30.985,26.359 30.113,29.175 27.164,29.175 23.367,29.175    26.602,31.64 28.825,33.334 27.998,36.005 26.862,39.671 29.575,37.603 32,35.755 34.425,37.603 37.138,39.671 36.002,36.005    35.175,33.334 37.398,31.64 40.633,29.175  "/></g></svg>